# xmcd
#
# Track frame offsets:
#	151
#	13060
#	27789
#	39243
#	51592
#	65380
#	77327
#	92143
#	110989
#	126609
#	141002
#	157047
#	174662
#	188021
#
# Disc length: 2685 seconds
#
# Revision: 3
# Processed by: cddbd v1.5.2PL0 Copyright (c) Steve Scherf et al.
# Submitted via: audiograbber 1.83.01
#
DISCID=c00a7b0e
DTITLE=Jenny Thoms - Kinder der Bibel
DYEAR=1900
DGENRE=
TTITLE0=Halleluja - Wir sind Kinder dieser Welt
TTITLE1=Baby Mose
TTITLE2=Lasset die Kinder zu mir kommen
TTITLE3=Spiel, David, spiel auf deiner Harfe
TTITLE4=Lass uns miteinander gehen (Zach‰us)
TTITLE5=Talida kum (Tochter des Jairus)
TTITLE6=Ein groﬂes Schiff, das sich Arche nennt
TTITLE7=Warum funkeln Sterne
TTITLE8=Einen Regenbogen (Gott hat alle Kinder lieb)
TTITLE9=Samuel
TTITLE10=Stopp - so geht's nicht weiter (Der Wolkenkratzer)
TTITLE11=In meines Vaters Haus (Jesus im Tempel)
TTITLE12=Bring sie her - 2 Fische und 5 Brote
TTITLE13=Zuerst ganz klein - dann riesengroﬂ (Isaak)
EXTD=
EXTT0=
EXTT1=
EXTT2=
EXTT3=
EXTT4=
EXTT5=
EXTT6=
EXTT7=
EXTT8=
EXTT9=
EXTT10=
EXTT11=
EXTT12=
EXTT13=
PLAYORDER=
